<?xml version="1.0" encoding="utf-8"?>
<!-- Generator: Adobe Illustrator 19.0.1, SVG Export Plug-In . SVG Version: 6.00 Build 0)  -->
<svg version="1.1" id="Слой_1" xmlns="http://www.w3.org/2000/svg" xmlns:xlink="http://www.w3.org/1999/xlink" x="0px" y="0px"
	 viewBox="0 0 205.5 36.3" style="enable-background:new 0 0 205.5 36.3;" xml:space="preserve">
<style type="text/css">
	.st0{fill:#FFFFFF;}
	.st1{opacity:0.15;}
</style>
<g>
	<g>
		<path class="st0" d="M26.5,22.1L16,12.7h11.2l-2-2H10.9l-2.6,2.6l1.3,1.2l10.3,9.3H8.9l2,2h14.4l2.5-2.5L26.5,22.1z M22.7,23.8
			L10.9,13.1l-0.5-0.4h2.6l12,10.8l0.3,0.3H22.7z"/>
		<polygon class="st0" points="23.5,9 12.6,9 14.6,7 21.5,7 		"/>
		<path class="st0" d="M18.1,0.6L0.4,18.2l17.7,17.6l17.7-17.6L18.1,0.6z M23.5,27.5L18.1,33l-3.5-3.5l-2-2l-1.8-1.8l-2-2l-5.5-5.5
			l4.9-4.9l9.8-9.8L21.5,7l2,2l3.7,3.7l5.6,5.6l-5,5l-2.5,2.5L23.5,27.5z"/>
		<polygon class="st0" points="23.5,27.5 21.5,29.5 14.6,29.5 12.6,27.5 		"/>
		<path class="st1" d="M14.6,7l-2,2h2.4l2-2H14.6z M15.1,27.5h-2.4l2,2H17L15.1,27.5z M11.3,23.8H8.9l2,2h2.4L11.3,23.8z M21.1,27.5
			l-2,2h2.4l2-2H21.1z M27.8,23.3l-1.3-1.2l-1.4,1.4l0.3,0.3h-0.6l-2,2h2.4l7.5-7.5L27.8,23.3z M25.3,10.7h-2.4l2,2h2.4L25.3,10.7z
			 M21.5,7h-2.4l2,2h2.4L21.5,7z M13.3,10.7h-2.4l-2.6,2.6l1.3,1.2l1.4-1.4l-0.5-0.4h0.9L13.3,10.7z"/>
	</g>
	<g>
		<g>
			<g>
				<path class="st0" d="M43.5,15.8c0-0.4,0.1-0.8,0.2-1.1c0.1-0.3,0.3-0.6,0.6-0.9c0.3-0.2,0.6-0.4,1-0.6c0.4-0.1,0.9-0.2,1.5-0.2
					c0.3,0,0.5,0,0.8,0c0.3,0,0.6,0.1,0.8,0.1c0.3,0,0.6,0.1,0.8,0.2c0.4,0.1,0.9,0.4,0.9,0.4l-0.5,1.5c0,0-0.1,0-0.2-0.1
					c-0.5-0.2-1-0.3-1.4-0.4c-0.5-0.1-0.9-0.1-1.3-0.1c-0.5,0-0.9,0.1-1.1,0.3c-0.2,0.2-0.3,0.5-0.3,0.7c0,0.2,0,0.3,0.1,0.5
					c0.1,0.1,0.2,0.3,0.4,0.4c0.2,0.1,0.4,0.3,0.7,0.4c0.3,0.1,0.6,0.3,1,0.4c0.4,0.2,0.8,0.4,1.2,0.5c0.4,0.2,0.7,0.4,1,0.6
					c0.3,0.2,0.5,0.5,0.7,0.9c0.2,0.3,0.3,0.7,0.3,1.2c0,0.5-0.1,0.9-0.3,1.3c-0.2,0.4-0.4,0.7-0.8,0.9c-0.3,0.2-0.7,0.4-1.2,0.5
					c-0.4,0.1-0.9,0.2-1.4,0.2c-0.6,0-1.3-0.1-1.9-0.2c-0.7-0.1-1.3-0.3-1.9-0.6L43,22.6l0.6-1.5c0,0,0.1,0,0.2,0.1
					c0.5,0.2,0.9,0.4,1.5,0.5c0.5,0.1,1,0.2,1.5,0.2c0.7,0,1.3-0.1,1.6-0.4c0.3-0.3,0.5-0.6,0.5-0.9c0-0.2,0-0.4-0.1-0.5
					c-0.1-0.2-0.2-0.3-0.4-0.4c-0.2-0.1-0.4-0.3-0.6-0.4c-0.3-0.1-0.6-0.3-0.9-0.4c-0.5-0.2-1-0.4-1.4-0.6c-0.4-0.2-0.8-0.4-1-0.7
					c-0.3-0.2-0.5-0.5-0.6-0.8C43.6,16.5,43.5,16.1,43.5,15.8z"/>
				<polygon class="st0" points="84.8,23.3 82.1,18.3 80.2,20.5 80.2,23.3 78.4,23.3 78.4,13.1 80.2,13.1 80.2,17.9 84.2,13.1 
					86.3,13.1 83.3,16.8 86.9,23.3 				"/>
			</g>
			<polygon class="st0" points="61,13.1 61,23.3 59.2,23.3 59.2,18.8 54.7,18.8 54.7,23.3 52.9,23.3 52.9,13.1 54.7,13.1 54.7,17.2 
				59.2,17.2 59.2,13.1 			"/>
			<rect x="73.6" y="13.1" class="st0" width="1.8" height="10.2"/>
			<polygon class="st0" points="96.8,13.1 96.8,23.3 95,23.3 95,18.8 90.5,18.8 90.5,23.3 88.7,23.3 88.7,13.1 90.5,13.1 90.5,17.2 
				95,17.2 95,13.1 			"/>
			<polygon class="st0" points="71,21.7 71,23.3 64,23.3 64,13.1 70.9,13.1 70.9,14.7 65.8,14.7 65.8,17.1 70.4,17.1 70.4,18.7 
				65.8,18.7 65.8,21.7 			"/>
		</g>
	</g>
	<path class="st0" d="M112.3,23.3l-2.9-4.2h-2.2v4.2h-0.9V13.2h3.8c1.8,0,3.1,1.1,3.1,3c0,1.8-1.3,2.9-2.8,2.9l2.9,4.3H112.3z
		 M112.3,16.1c0-1.3-0.9-2.2-2.3-2.2h-2.9v4.4h2.9C111.4,18.3,112.3,17.4,112.3,16.1z"/>
	<path class="st0" d="M116.1,23.3V13.2h6.5v0.8H117v3.8h5.5v0.8H117v4h5.6v0.8H116.1z"/>
	<path class="st0" d="M132.9,23.3l-1-2.5h-5.4l-1,2.5h-1l4.2-10.2h1.1l4.2,10.2H132.9z M129.2,14.1l-2.4,5.9h4.8L129.2,14.1z"/>
	<path class="st0" d="M136.1,23.3V13.2h0.9v9.4h4.9v0.8H136.1z"/>
	<path class="st0" d="M149.3,23.3V13.2h6.5v0.8h-5.6v3.8h5.5v0.8h-5.5v4h5.6v0.8H149.3z"/>
	<path class="st0" d="M158.1,21.9l0.6-0.7c0.7,0.8,1.7,1.5,3.2,1.5c2.1,0,2.7-1.2,2.7-2c0-3-6.1-1.4-6.1-5c0-1.7,1.5-2.7,3.3-2.7
		c1.5,0,2.7,0.5,3.4,1.4l-0.6,0.6c-0.7-0.9-1.8-1.3-2.9-1.3c-1.4,0-2.4,0.8-2.4,1.9c0,2.6,6.1,1.2,6.1,5c0,1.3-0.9,2.9-3.6,2.9
		C160.2,23.5,158.9,22.8,158.1,21.9z"/>
	<path class="st0" d="M170.9,23.3v-9.4h-3.3v-0.8h7.5v0.8h-3.3v9.4H170.9z"/>
	<path class="st0" d="M185,23.3l-1-2.5h-5.4l-1,2.5h-1l4.2-10.2h1.1l4.2,10.2H185z M181.3,14.1l-2.4,5.9h4.8L181.3,14.1z"/>
	<path class="st0" d="M190.9,23.3v-9.4h-3.3v-0.8h7.5v0.8h-3.3v9.4H190.9z"/>
	<path class="st0" d="M197.7,23.3V13.2h6.5v0.8h-5.6v3.8h5.5v0.8h-5.5v4h5.6v0.8H197.7z"/>
</g>
</svg>
