<?xml version="1.0" encoding="utf-8"?>
<!-- Generator: Adobe Illustrator 19.0.1, SVG Export Plug-In . SVG Version: 6.00 Build 0)  -->
<svg version="1.1" id="Слой_1" xmlns="http://www.w3.org/2000/svg" xmlns:xlink="http://www.w3.org/1999/xlink" x="0px" y="0px"
	 viewBox="0 0 125 35" style="enable-background:new 0 0 125 35;" xml:space="preserve">
<style type="text/css">
	.st0{fill:#FFFFFF;}
	.st1{opacity:0.15;}
</style>
<g>
	<g>
		<path class="st0" d="M25.8,21.4L15.5,12h11.1l-2-2H10.4l-2.6,2.6L9,13.8L19.2,23H8.4l2,2h14.3l2.5-2.5L25.8,21.4z M22.1,23
			L10.4,12.4L9.9,12h2.6l11.9,10.7l0.3,0.3H22.1z"/>
		<polygon class="st0" points="22.9,8.3 12.1,8.3 14.1,6.3 20.9,6.3 		"/>
		<path class="st0" d="M17.5,0L0,17.5L17.5,35L35,17.5L17.5,0z M22.9,26.7l-5.4,5.4l-3.4-3.4l-2-2L10.4,25l-2-2l-5.5-5.5l4.8-4.8
			l9.8-9.8l3.4,3.4l2,2l3.7,3.7l5.5,5.5l-5,5L24.7,25L22.9,26.7z"/>
		<polygon class="st0" points="22.9,26.7 20.9,28.7 14.1,28.7 12.1,26.7 		"/>
		<path class="st1" d="M14.1,6.3l-2,2h2.4l2-2H14.1z M14.5,26.7h-2.4l2,2h2.4L14.5,26.7z M10.8,23H8.4l2,2h2.4L10.8,23z M20.5,26.7
			l-2,2h2.4l2-2H20.5z M27.1,22.5l-1.3-1.1l-1.4,1.4l0.3,0.3h-0.6l-2,2h2.4l7.4-7.4L27.1,22.5z M24.6,10h-2.4l2,2h2.4L24.6,10z
			 M20.9,6.3h-2.4l2,2h2.4L20.9,6.3z M12.8,10h-2.4l-2.6,2.6L9,13.8l1.4-1.4L9.9,12h0.9L12.8,10z"/>
	</g>
	<g>
		<g>
			<g>
				<g>
					<path class="st0" d="M40.4,7.7c0-0.6,0.1-1.1,0.3-1.6c0.2-0.5,0.5-0.9,0.8-1.2C42,4.6,42.4,4.3,43,4.1c0.6-0.2,1.2-0.3,2-0.3
						c0.4,0,0.7,0,1.1,0.1c0.4,0,0.8,0.1,1.2,0.2c0.4,0.1,0.8,0.2,1.1,0.3c0.6,0.2,1.3,0.5,1.3,0.5l-0.8,2c0,0-0.1-0.1-0.2-0.1
						c-0.7-0.2-1.3-0.4-2-0.5C46.1,6.1,45.5,6,45,6c-0.7,0-1.2,0.1-1.5,0.4c-0.3,0.3-0.5,0.6-0.5,1C43,7.7,43,8,43.1,8.2
						c0.1,0.2,0.3,0.4,0.6,0.6c0.3,0.2,0.6,0.4,1,0.5c0.4,0.2,0.9,0.4,1.4,0.6c0.6,0.2,1.1,0.5,1.7,0.7c0.5,0.2,1,0.5,1.4,0.9
						c0.4,0.3,0.7,0.7,1,1.2c0.2,0.5,0.4,1,0.4,1.6c0,0.7-0.1,1.3-0.4,1.8c-0.3,0.5-0.6,0.9-1.1,1.3c-0.5,0.3-1,0.6-1.6,0.8
						c-0.6,0.2-1.3,0.3-2,0.3c-0.8,0-1.7-0.1-2.7-0.2c-0.9-0.2-1.8-0.5-2.6-0.9l-0.3-0.2l0.9-2c0,0,0.1,0,0.3,0.1
						c0.6,0.3,1.3,0.5,2,0.7c0.7,0.2,1.4,0.3,2,0.3c1,0,1.7-0.2,2.2-0.5c0.4-0.4,0.6-0.8,0.6-1.3c0-0.3-0.1-0.5-0.2-0.7
						c-0.1-0.2-0.3-0.4-0.5-0.6c-0.2-0.2-0.5-0.4-0.9-0.5c-0.4-0.2-0.8-0.3-1.3-0.5c-0.7-0.3-1.4-0.6-2-0.8
						c-0.6-0.3-1.1-0.6-1.5-0.9c-0.4-0.3-0.7-0.7-0.9-1.1C40.5,8.7,40.4,8.2,40.4,7.7z"/>
					<polygon class="st0" points="97.8,18.2 94,11.2 91.5,14.3 91.5,18.2 89,18.2 89,4.1 91.5,4.1 91.5,10.7 96.9,4.1 99.8,4.1 
						95.7,9.2 100.8,18.2 					"/>
				</g>
				<polygon class="st0" points="64.8,4.1 64.8,18.2 62.3,18.2 62.3,11.8 56.1,11.8 56.1,18.2 53.6,18.2 53.6,4.1 56.1,4.1 
					56.1,9.7 62.3,9.7 62.3,4.1 				"/>
				<rect x="82.2" y="4.1" class="st0" width="2.5" height="14.2"/>
				<polygon class="st0" points="114.5,4.1 114.5,18.2 112,18.2 112,11.8 105.7,11.8 105.7,18.2 103.2,18.2 103.2,4.1 105.7,4.1 
					105.7,9.7 112,9.7 112,4.1 				"/>
				<polygon class="st0" points="78.7,16 78.7,18.2 68.9,18.2 68.9,4.1 78.5,4.1 78.5,6.2 71.4,6.2 71.4,9.6 77.8,9.6 77.8,11.8 
					71.4,11.8 71.4,16 				"/>
			</g>
		</g>
		<g>
			<path class="st0" d="M44.4,31l-2.2-3.2h-1.7V31h-0.7v-7.8h2.9c1.3,0,2.4,0.9,2.4,2.3c0,1.4-1,2.2-2.2,2.2l2.2,3.3H44.4z
				 M44.5,25.5c0-1-0.7-1.7-1.7-1.7h-2.2v3.3h2.2C43.8,27.2,44.5,26.5,44.5,25.5z"/>
			<path class="st0" d="M47.4,31v-7.8h4.9v0.6h-4.3v2.9h4.2v0.6h-4.2v3.1h4.3V31H47.4z"/>
			<path class="st0" d="M60.2,31l-0.8-1.9h-4.1L54.5,31h-0.8l3.2-7.8h0.8L61,31H60.2z M57.4,24l-1.8,4.5h3.7L57.4,24z"/>
			<path class="st0" d="M62.7,31v-7.8h0.7v7.2h3.8V31H62.7z"/>
			<path class="st0" d="M72.7,31v-7.8h4.9v0.6h-4.3v2.9h4.2v0.6h-4.2v3.1h4.3V31H72.7z"/>
			<path class="st0" d="M79.5,29.9l0.4-0.5c0.5,0.6,1.3,1.1,2.4,1.1c1.6,0,2.1-0.9,2.1-1.5c0-2.3-4.7-1.1-4.7-3.8
				c0-1.3,1.1-2.1,2.6-2.1c1.2,0,2,0.4,2.6,1.1l-0.4,0.5c-0.6-0.7-1.4-1-2.2-1c-1,0-1.8,0.6-1.8,1.4c0,2,4.7,0.9,4.7,3.8
				c0,1-0.7,2.2-2.8,2.2C81,31.2,80.1,30.7,79.5,29.9z"/>
			<path class="st0" d="M89.2,31v-7.2h-2.5v-0.6h5.8v0.6h-2.5V31H89.2z"/>
			<path class="st0" d="M100,31l-0.8-1.9h-4.1L94.4,31h-0.8l3.2-7.8h0.8l3.2,7.8H100z M97.2,24l-1.8,4.5h3.7L97.2,24z"/>
			<path class="st0" d="M104.5,31v-7.2H102v-0.6h5.8v0.6h-2.5V31H104.5z"/>
			<path class="st0" d="M109.7,31v-7.8h4.9v0.6h-4.3v2.9h4.2v0.6h-4.2v3.1h4.3V31H109.7z"/>
		</g>
	</g>
</g>
</svg>
