<?xml version="1.0" encoding="utf-8"?>
<!-- Generator: Adobe Illustrator 19.0.1, SVG Export Plug-In . SVG Version: 6.00 Build 0)  -->
<svg version="1.1" id="Слой_1" xmlns="http://www.w3.org/2000/svg" xmlns:xlink="http://www.w3.org/1999/xlink" x="0px" y="0px"
	 viewBox="0 0 163 40" style="enable-background:new 0 0 163 40;" xml:space="preserve">
<style type="text/css">
	.st0{fill:#FFFFFF;}
</style>
<g>
	<g>
		<path class="st0" d="M52.6,17c0-0.5,0.1-0.9,0.2-1.3c0.2-0.4,0.4-0.8,0.7-1.1c0.3-0.3,0.7-0.5,1.2-0.7c0.5-0.2,1.1-0.2,1.7-0.2
			c0.3,0,0.6,0,1,0.1c0.3,0,0.7,0.1,1,0.1c0.3,0.1,0.7,0.1,1,0.2c0.5,0.1,1.1,0.4,1.1,0.4L60,16.3c0,0-0.1,0-0.2-0.1
			c-0.6-0.2-1.2-0.3-1.7-0.4c-0.6-0.1-1.1-0.1-1.6-0.1c-0.6,0-1,0.1-1.3,0.4c-0.3,0.3-0.4,0.5-0.4,0.9c0,0.2,0,0.4,0.1,0.6
			c0.1,0.2,0.3,0.3,0.5,0.5c0.2,0.2,0.5,0.3,0.8,0.5c0.3,0.2,0.7,0.3,1.2,0.5c0.5,0.2,1,0.4,1.4,0.6c0.5,0.2,0.9,0.5,1.2,0.8
			c0.4,0.3,0.6,0.6,0.8,1c0.2,0.4,0.3,0.9,0.3,1.4c0,0.6-0.1,1.1-0.3,1.6c-0.2,0.4-0.5,0.8-0.9,1.1c-0.4,0.3-0.9,0.5-1.4,0.7
			c-0.5,0.1-1.1,0.2-1.7,0.2c-0.7,0-1.5-0.1-2.3-0.2c-0.8-0.1-1.6-0.4-2.2-0.8l-0.2-0.1l0.8-1.7c0,0,0.1,0,0.3,0.1
			c0.6,0.2,1.1,0.4,1.7,0.6c0.6,0.2,1.2,0.2,1.7,0.2c0.9,0,1.5-0.2,1.9-0.5c0.4-0.3,0.6-0.7,0.6-1.1c0-0.2,0-0.5-0.1-0.6
			c-0.1-0.2-0.2-0.4-0.4-0.5c-0.2-0.2-0.4-0.3-0.8-0.5c-0.3-0.1-0.7-0.3-1.1-0.5c-0.6-0.2-1.2-0.5-1.7-0.7c-0.5-0.2-0.9-0.5-1.3-0.8
			c-0.3-0.3-0.6-0.6-0.8-1C52.7,17.9,52.6,17.5,52.6,17z"/>
		<polygon class="st0" points="102.3,26.1 99,20.1 96.8,22.7 96.8,26.1 94.7,26.1 94.7,13.9 96.8,13.9 96.8,19.6 101.6,13.9 
			104.1,13.9 100.5,18.3 104.9,26.1 		"/>
	</g>
	<polygon class="st0" points="73.7,13.9 73.7,26.1 71.6,26.1 71.6,20.6 66.2,20.6 66.2,26.1 64,26.1 64,13.9 66.2,13.9 66.2,18.8 
		71.6,18.8 71.6,13.9 	"/>
	<rect x="88.8" y="13.9" class="st0" width="2.2" height="12.3"/>
	<polygon class="st0" points="116.8,13.9 116.8,26.1 114.6,26.1 114.6,20.6 109.2,20.6 109.2,26.1 107,26.1 107,13.9 109.2,13.9 
		109.2,18.8 114.6,18.8 114.6,13.9 	"/>
	<polygon class="st0" points="85.7,24.2 85.7,26.1 77.2,26.1 77.2,13.9 85.6,13.9 85.6,15.8 79.4,15.8 79.4,18.7 85,18.7 85,20.6 
		79.4,20.6 79.4,24.2 	"/>
</g>
<g>
	<path class="st0" d="M20.8,0.7L1.5,20l19.4,19.4L40.2,20L20.8,0.7z M20.8,36.6L20.8,36.6L4.2,20L20.8,3.4l0,0L37.4,20L20.8,36.6z"
		/>
	<g>
		<polygon class="st0" points="27.1,9.5 27,9.5 24.8,7.3 24.8,7.3 		"/>
		<g>
			<path class="st0" d="M12.7,14L12.7,14l-1.6,1.6l11.8,10.7H13l2.2,2.2h11.3l1.1-1.1L12.7,14z M14.1,12.6L14.1,12.6"/>
			<polygon class="st0" points="30.5,24.4 29,26 28.9,26 14.1,12.6 15.2,11.5 26.5,11.5 28.8,13.7 18.7,13.7 			"/>
			<polygon class="st0" points="22.3,7.3 24.5,9.5 17.2,9.5 19.4,7.3 			"/>
			<polygon class="st0" points="24.5,30.5 22.3,32.7 19.4,32.7 17.2,30.5 			"/>
		</g>
		<polygon class="st0" points="27.1,30.5 24.8,32.7 24.8,32.7 27,30.5 		"/>
	</g>
</g>
</svg>
