<?xml version="1.0" encoding="utf-8"?>
<!-- Generator: Adobe Illustrator 19.0.1, SVG Export Plug-In . SVG Version: 6.00 Build 0)  -->
<svg version="1.1" id="Слой_1" xmlns="http://www.w3.org/2000/svg" xmlns:xlink="http://www.w3.org/1999/xlink" x="0px" y="0px"
	 viewBox="-155 360 300 74" style="enable-background:new -155 360 300 74;" xml:space="preserve">
<style type="text/css">
	.st0{fill:#FFFFFF;}
	.st1{opacity:0.4;enable-background:new    ;}
	.st2{opacity:0.8;}
	.st3{fill:#F4E8D4;}
</style>
<path class="st0" d="M-100.4,405.1l-21.9-19.7h23.6l-4.1-4.1h-30.3l-5.5,5.5l2.7,2.4l21.5,19.4h-22.8l4.1,4.1h30.2l5.2-5.2
	L-100.4,405.1z M-108.2,408.6l-24.8-22.3l-1-0.9h5.5l25.2,22.7l0.6,0.6h-5.5V408.6z"/>
<polygon class="st0" points="-106.6,377.5 -129.4,377.5 -125.3,373.4 -110.7,373.4 "/>
<path class="st0" d="M-118,360l-37,37l37,37l37-37L-118,360z M-106.6,416.5l-11.4,11.4l-7.3-7.3l-4.1-4.1l-3.7-3.7l-4.1-4.1
	l-11.6-11.7l10.2-10.2l20.6-20.7l7.3,7.3l4.1,4.1l7.8,7.8l11.7,11.7l-10.6,10.6l-5.2,5.2L-106.6,416.5z"/>
<polygon class="st0" points="-106.6,416.5 -110.7,420.6 -125.3,420.6 -129.4,416.5 "/>
<path class="st1" d="M-125.3,373.4l-4.1,4.1h5.1l4.1-4.1H-125.3z M-124.3,416.5h-5.1l4.1,4.1h5.1L-124.3,416.5z M-132.1,408.6h-5.1
	l4.1,4.1h5.1L-132.1,408.6z M-111.7,416.5l-4.1,4.1h5.1l4.1-4.1H-111.7z M-97.7,407.6l-2.7-2.4l-2.9,2.9l0.6,0.6h-1.2l-4.1,4.1h5.1
	l15.8-15.8L-97.7,407.6z M-102.9,381.2h-5.1l4.1,4.1h5.1L-102.9,381.2z M-110.7,373.4h-5.1l4.1,4.1h5.1L-110.7,373.4z M-127.9,381.2
	h-5.1l-5.5,5.5l2.7,2.4l2.9-2.9l-1-0.9h1.9L-127.9,381.2z"/>
<g>
	<g class="st2">
		<path class="st3" d="M-62.6,414.6l-2.3-3.4h-1.8v3.4h-0.7v-8.1h3c1.4,0,2.5,0.9,2.5,2.4s-1.1,2.3-2.3,2.3l2.4,3.4
			C-61.8,414.6-62.6,414.6-62.6,414.6z M-62.6,408.8c0-1-0.7-1.7-1.8-1.7h-2.3v3.5h2.3C-63.3,410.6-62.6,409.8-62.6,408.8z"/>
		<path class="st3" d="M-56.2,414.6v-8.1h5.2v0.6h-4.5v3h4.4v0.6h-4.4v3.2h4.5v0.6h-5.2V414.6z"/>
		<path class="st3" d="M-39.5,414.6l-0.8-2h-4.3l-0.8,2h-0.8l3.3-8.1h0.9l3.3,8.1H-39.5z M-42.4,407.2l-1.9,4.8h3.8L-42.4,407.2z"/>
		<path class="st3" d="M-33.5,414.6v-8.1h0.7v7.5h3.9v0.6H-33.5z"/>
		<path class="st3" d="M-16.4,414.6v-8.1h5.2v0.6h-4.5v3h4.4v0.6h-4.4v3.2h4.5v0.6h-5.2V414.6z"/>
		<path class="st3" d="M-6,413.4l0.5-0.5c0.5,0.6,1.4,1.2,2.5,1.2c1.7,0,2.2-0.9,2.2-1.6c0-2.4-4.9-1.1-4.9-4c0-1.3,1.2-2.2,2.7-2.2
			c1.2,0,2.1,0.4,2.8,1.1l-0.5,0.5c-0.6-0.7-1.4-1-2.3-1c-1.1,0-1.9,0.6-1.9,1.5c0,2.1,4.9,0.9,4.9,4c0,1.1-0.7,2.3-2.9,2.3
			C-4.4,414.7-5.4,414.2-6,413.4z"/>
		<path class="st3" d="M7.5,414.6v-7.5H4.8v-0.6h6v0.6H8.1v7.5H7.5z"/>
		<path class="st3" d="M22.2,414.6l-0.8-2h-4.3l-0.8,2h-0.8l3.3-8.1h0.9l3.3,8.1H22.2z M19.2,407.2l-1.9,4.8h3.8L19.2,407.2z"/>
		<path class="st3" d="M30.2,414.6v-7.5h-2.7v-0.6h6v0.6h-2.7v7.5H30.2z"/>
		<path class="st3" d="M38.9,414.6v-8.1h5.2v0.6h-4.5v3H44v0.6h-4.4v3.2h4.5v0.6h-5.2V414.6z"/>
	</g>
	<g>
		<g>
			<g>
				<path class="st0" d="M-67.6,382c0-0.9,0.1-1.6,0.4-2.4c0.3-0.7,0.7-1.3,1.3-1.8c0.6-0.5,1.3-0.9,2.2-1.2c0.9-0.3,1.9-0.4,3-0.4
					c0.5,0,1.1,0,1.7,0.1c0.6,0.1,1.2,0.1,1.8,0.2c0.6,0.1,1.2,0.2,1.7,0.4c0.8,0.2,2,0.7,2,0.7l-1.1,3.1c0,0-0.2-0.1-0.4-0.1
					c-1-0.3-2-0.6-3-0.8c-1-0.2-1.9-0.3-2.7-0.3c-1.1,0-1.8,0.2-2.3,0.7c-0.5,0.4-0.7,1-0.7,1.5c0,0.4,0.1,0.7,0.3,1
					c0.2,0.3,0.5,0.6,0.8,0.9c0.4,0.3,0.9,0.5,1.5,0.8c0.6,0.3,1.3,0.6,2.1,0.9c0.9,0.4,1.7,0.7,2.5,1.1s1.5,0.8,2.1,1.3
					s1.1,1.1,1.5,1.8s0.5,1.5,0.5,2.5c0,1.1-0.2,2-0.6,2.8c-0.4,0.8-0.9,1.4-1.6,1.9s-1.5,0.9-2.4,1.1c-0.9,0.3-1.9,0.4-3,0.4
					c-1.3,0-2.6-0.1-4-0.4c-1.4-0.2-2.7-0.7-3.9-1.3l-0.4-0.2l1.4-3c0,0,0.1,0.1,0.5,0.2c1,0.4,2,0.7,3,1s2.1,0.4,3,0.4
					c1.5,0,2.6-0.3,3.3-0.8c0.6-0.5,1-1.2,1-2c0-0.4-0.1-0.8-0.2-1.1c-0.2-0.3-0.4-0.6-0.8-0.9c-0.3-0.3-0.8-0.5-1.3-0.8
					c-0.5-0.3-1.2-0.5-1.9-0.8c-1.1-0.4-2.1-0.9-3-1.3s-1.6-0.9-2.2-1.4s-1-1.1-1.4-1.7C-67.4,383.5-67.6,382.8-67.6,382z"/>
				<polygon class="st0" points="19.1,397.9 13.3,387.3 9.5,392 9.5,397.9 5.7,397.9 5.7,376.6 9.5,376.6 9.5,386.5 17.7,376.6 
					22.1,376.6 15.9,384.3 23.5,397.9 				"/>
			</g>
			<polygon class="st0" points="-30.8,376.6 -30.8,397.9 -34.5,397.9 -34.5,388.3 -44,388.3 -44,397.9 -47.7,397.9 -47.7,376.6 
				-44,376.6 -44,385.1 -34.5,385.1 -34.5,376.6 			"/>
			<rect x="-4.5" y="376.6" class="st0" width="3.8" height="21.4"/>
			<polygon class="st0" points="44.3,376.6 44.3,397.9 40.5,397.9 40.5,388.3 31.1,388.3 31.1,397.9 27.3,397.9 27.3,376.6 
				31.1,376.6 31.1,385.1 40.5,385.1 40.5,376.6 			"/>
			<polygon class="st0" points="-9.9,394.6 -9.9,397.9 -24.6,397.9 -24.6,376.6 -10.1,376.6 -10.1,379.8 -20.9,379.8 -20.9,385 
				-11.1,385 -11.1,388.2 -20.9,388.2 -20.9,394.6 			"/>
		</g>
	</g>
</g>
</svg>
