<?xml version="1.0" encoding="utf-8"?>
<!-- Generator: Adobe Illustrator 19.0.1, SVG Export Plug-In . SVG Version: 6.00 Build 0)  -->
<svg version="1.1" id="Слой_1" xmlns="http://www.w3.org/2000/svg" xmlns:xlink="http://www.w3.org/1999/xlink" x="0px" y="0px"
	 viewBox="-856 522.7 205.5 36.3" style="enable-background:new -856 522.7 205.5 36.3;" xml:space="preserve">
<style type="text/css">
	.st0{fill:#FFFFFF;}
	.st1{opacity:0.15;enable-background:new    ;}
</style>
<g>
	<path class="st0" d="M-828.3,544.8l-10.8-9.7h11.6l-2-2h-14.8l-2.7,2.7l1.3,1.2l10.6,9.5h-11.2l2,2h14.8l2.5-2.5L-828.3,544.8z
		 M-832.2,546.6l-12.1-11l-0.5-0.4h2.7l12.3,11.1l0.3,0.3L-832.2,546.6L-832.2,546.6z"/>
	<polygon class="st0" points="-831.4,531.3 -842.5,531.3 -840.5,529.3 -833.4,529.3 	"/>
	<path class="st0" d="M-836.9,522.7l-18.2,18.2l18.2,18.1l18.1-18.1L-836.9,522.7z M-831.3,550.4l-5.6,5.6l-3.6-3.6l-2-2l-1.8-1.8
		l-2-2l-5.7-5.7l5-5l10.1-10.1l3.6,3.6l2,2l3.8,3.8l5.7,5.7l-5.2,5.2l-2.5,2.5L-831.3,550.4z"/>
	<polygon class="st0" points="-831.3,550.4 -833.4,552.4 -840.5,552.4 -842.5,550.4 	"/>
	<path class="st1" d="M-840.5,529.3l-2,2h2.5l2-2H-840.5z M-840,550.4h-2.5l2,2h2.5L-840,550.4z M-843.9,546.6h-2.5l2,2h2.5
		L-843.9,546.6z M-833.9,550.4l-2,2h2.5l2-2H-833.9z M-827,546l-1.3-1.2l-1.4,1.4l0.3,0.3h-0.6l-2,2h2.5l7.7-7.7L-827,546z
		 M-829.5,533.1h-2.5l2,2h2.5L-829.5,533.1z M-833.4,529.3h-2.5l2,2h2.5L-833.4,529.3z M-841.8,533.1h-2.5l-2.7,2.7l1.3,1.2l1.4-1.4
		l-0.5-0.4h0.9L-841.8,533.1z"/>
</g>
<g>
	<g>
		<g>
			<path class="st0" d="M-810.8,538.3c0-0.4,0.1-0.8,0.2-1.2c0.1-0.3,0.3-0.7,0.6-0.9c0.3-0.3,0.6-0.5,1.1-0.6
				c0.4-0.1,0.9-0.2,1.5-0.2c0.3,0,0.5,0,0.8,0s0.6,0.1,0.9,0.1c0.3,0.1,0.6,0.1,0.8,0.2c0.4,0.1,1,0.4,1,0.4l-0.6,1.5
				c0,0-0.1,0-0.2-0.1c-0.5-0.2-1-0.3-1.5-0.4c-0.5-0.1-0.9-0.1-1.3-0.1c-0.5,0-0.9,0.1-1.1,0.3c-0.2,0.2-0.4,0.5-0.4,0.8
				c0,0.2,0,0.3,0.1,0.5c0.1,0.1,0.2,0.3,0.4,0.4c0.2,0.1,0.4,0.3,0.7,0.4c0.3,0.1,0.6,0.3,1,0.4c0.4,0.2,0.8,0.4,1.2,0.5
				c0.4,0.2,0.7,0.4,1,0.7c0.3,0.2,0.5,0.5,0.7,0.9c0.2,0.3,0.3,0.7,0.3,1.2s-0.1,1-0.3,1.4s-0.5,0.7-0.8,1
				c-0.3,0.2-0.7,0.4-1.2,0.6c-0.5,0.1-1,0.2-1.5,0.2c-0.6,0-1.3-0.1-2-0.2c-0.7-0.1-1.3-0.3-1.9-0.7l-0.2-0.1l0.7-1.5
				c0,0,0.1,0,0.2,0.1c0.5,0.2,1,0.4,1.5,0.5s1,0.2,1.5,0.2c0.8,0,1.3-0.1,1.6-0.4c0.3-0.3,0.5-0.6,0.5-1c0-0.2,0-0.4-0.1-0.6
				c-0.1-0.2-0.2-0.3-0.4-0.4c-0.2-0.1-0.4-0.3-0.6-0.4c-0.3-0.1-0.6-0.3-0.9-0.4c-0.5-0.2-1-0.4-1.5-0.6c-0.4-0.2-0.8-0.4-1.1-0.7
				c-0.3-0.2-0.5-0.5-0.7-0.8C-810.8,539-810.8,538.7-810.8,538.3z"/>
			<polygon class="st0" points="-768.3,546.1 -771.2,540.9 -773,543.2 -773,546.1 -774.9,546.1 -774.9,535.6 -773,535.6 -773,540.5 
				-769,535.6 -766.8,535.6 -769.9,539.4 -766.1,546.1 			"/>
		</g>
		<polygon class="st0" points="-792.8,535.6 -792.8,546.1 -794.6,546.1 -794.6,541.4 -799.3,541.4 -799.3,546.1 -801.1,546.1 
			-801.1,535.6 -799.3,535.6 -799.3,539.8 -794.6,539.8 -794.6,535.6 		"/>
		<rect x="-779.9" y="535.6" class="st0" width="1.8" height="10.5"/>
		<polygon class="st0" points="-756,535.6 -756,546.1 -757.8,546.1 -757.8,541.4 -762.4,541.4 -762.4,546.1 -764.3,546.1 
			-764.3,535.6 -762.4,535.6 -762.4,539.8 -757.8,539.8 -757.8,535.6 		"/>
		<polygon class="st0" points="-782.5,544.5 -782.5,546.1 -789.8,546.1 -789.8,535.6 -782.6,535.6 -782.6,537.2 -787.9,537.2 
			-787.9,539.7 -783.1,539.7 -783.1,541.3 -787.9,541.3 -787.9,544.5 		"/>
	</g>
</g>
<g>
	<path class="st0" d="M-744.5,544.5l-2-3h-1.6v3h-0.6v-7.2h2.7c1.2,0,2.2,0.8,2.2,2.1s-0.9,2-2,2.1l2.1,3L-744.5,544.5L-744.5,544.5
		z M-744.5,539.4c0-0.9-0.6-1.5-1.6-1.5h-2v3.1h2C-745.1,540.9-744.5,540.3-744.5,539.4z"/>
	<path class="st0" d="M-741.8,544.5v-7.2h4.6v0.6h-4v2.7h3.9v0.6h-3.9v2.9h4v0.6h-4.6V544.5z"/>
	<path class="st0" d="M-729.9,544.5l-0.7-1.8h-3.8l-0.7,1.8h-0.7l3-7.2h0.8l3,7.2H-729.9z M-732.5,537.9l-1.7,4.2h3.4L-732.5,537.9z
		"/>
	<path class="st0" d="M-727.6,544.5v-7.2h0.6v6.7h3.5v0.6L-727.6,544.5L-727.6,544.5z"/>
	<path class="st0" d="M-718.2,544.5v-7.2h4.6v0.6h-4v2.7h3.9v0.6h-3.9v2.9h4v0.6h-4.6V544.5z"/>
	<path class="st0" d="M-712,543.4l0.4-0.5c0.5,0.5,1.2,1,2.2,1c1.5,0,1.9-0.8,1.9-1.4c0-2.1-4.3-1-4.3-3.5c0-1.2,1.1-1.9,2.4-1.9
		c1.1,0,1.9,0.4,2.4,1l-0.4,0.5c-0.5-0.6-1.3-0.9-2.1-0.9c-1,0-1.7,0.6-1.7,1.3c0,1.8,4.3,0.8,4.3,3.5c0,0.9-0.6,2-2.6,2
		C-710.5,544.6-711.4,544.1-712,543.4z"/>
	<path class="st0" d="M-702.9,544.5v-6.7h-2.4v-0.6h5.3v0.6h-2.4v6.7H-702.9z"/>
	<path class="st0" d="M-692.9,544.5l-0.7-1.8h-3.8l-0.7,1.8h-0.7l3-7.2h0.8l3,7.2H-692.9z M-695.5,537.9l-1.7,4.2h3.4L-695.5,537.9z
		"/>
	<path class="st0" d="M-688.7,544.5v-6.7h-2.4v-0.6h5.3v0.6h-2.4v6.7H-688.7z"/>
	<path class="st0" d="M-683.9,544.5v-7.2h4.6v0.6h-4v2.7h3.9v0.6h-3.9v2.9h4v0.6h-4.6V544.5z"/>
</g>
</svg>
