<?xml version="1.0" encoding="utf-8"?>
<!-- Generator: Adobe Illustrator 19.0.0, SVG Export Plug-In . SVG Version: 6.00 Build 0)  -->
<svg version="1.1" id="Слой_1" xmlns="http://www.w3.org/2000/svg" xmlns:xlink="http://www.w3.org/1999/xlink" x="0px" y="0px"
	 viewBox="0 0 300 74" style="enable-background:new 0 0 300 74;" xml:space="preserve">
<style type="text/css">
	.st0{fill:#FFFFFF;}
	.st1{opacity:0.15;}
	.st2{opacity:0.8;}
	.st3{fill:#F4E8D4;}
</style>
<g>
	<g>
		<path class="st0" d="M54.6,45.1L32.7,25.4h23.6l-4.1-4.1H21.9l-5.5,5.5l2.7,2.4l21.5,19.4H17.8l4.1,4.1h30.2l5.2-5.2L54.6,45.1z
			 M46.8,48.6L22,26.3l-1-0.9h5.5l25.2,22.7l0.6,0.6H46.8z"/>
		<polygon class="st0" points="48.4,17.5 25.6,17.5 29.7,13.4 44.3,13.4 		"/>
		<path class="st0" d="M37,0L0,37l37,37l37-37L37,0z M48.4,56.5L37,67.9l-7.3-7.3l-4.1-4.1l-3.7-3.7l-4.1-4.1L6.2,37l10.2-10.2
			L37,6.1l7.3,7.3l4.1,4.1l7.8,7.8L67.9,37L57.3,47.6l-5.2,5.2L48.4,56.5z"/>
		<polygon class="st0" points="48.4,56.5 44.3,60.6 29.7,60.6 25.6,56.5 		"/>
		<path class="st1" d="M29.7,13.4l-4.1,4.1h5.1l4.1-4.1H29.7z M30.7,56.5h-5.1l4.1,4.1h5.1L30.7,56.5z M22.9,48.6h-5.1l4.1,4.1H27
			L22.9,48.6z M43.3,56.5l-4.1,4.1h5.1l4.1-4.1H43.3z M57.3,47.6l-2.7-2.4l-2.9,2.9l0.6,0.6h-1.2L47,52.8h5.1L67.9,37L57.3,47.6z
			 M52.1,21.2H47l4.1,4.1h5.1L52.1,21.2z M44.3,13.4h-5.1l4.1,4.1h5.1L44.3,13.4z M27.1,21.2h-5.1l-5.5,5.5l2.7,2.4l2.9-2.9l-1-0.9
			h1.9L27.1,21.2z"/>
	</g>
	<g>
		<g class="st2">
			<path class="st3" d="M92.4,54.6l-2.3-3.4h-1.8v3.4h-0.7v-8.1h3c1.4,0,2.5,0.9,2.5,2.4c0,1.5-1.1,2.3-2.3,2.3l2.4,3.4H92.4z
				 M92.4,48.8c0-1-0.7-1.7-1.8-1.7h-2.3v3.5h2.3C91.7,50.6,92.4,49.8,92.4,48.8z"/>
			<path class="st3" d="M98.8,54.6v-8.1h5.2v0.6h-4.5v3h4.4v0.6h-4.4v3.2h4.5v0.6H98.8z"/>
			<path class="st3" d="M115.5,54.6l-0.8-2h-4.3l-0.8,2h-0.8l3.3-8.1h0.9l3.3,8.1H115.5z M112.6,47.2l-1.9,4.8h3.8L112.6,47.2z"/>
			<path class="st3" d="M121.5,54.6v-8.1h0.7v7.5h3.9v0.6H121.5z"/>
			<path class="st3" d="M138.6,54.6v-8.1h5.2v0.6h-4.5v3h4.4v0.6h-4.4v3.2h4.5v0.6H138.6z"/>
			<path class="st3" d="M149,53.4l0.5-0.5c0.5,0.6,1.4,1.2,2.5,1.2c1.7,0,2.2-0.9,2.2-1.6c0-2.4-4.9-1.1-4.9-4
				c0-1.3,1.2-2.2,2.7-2.2c1.2,0,2.1,0.4,2.8,1.1l-0.5,0.5c-0.6-0.7-1.4-1-2.3-1c-1.1,0-1.9,0.6-1.9,1.5c0,2.1,4.9,0.9,4.9,4
				c0,1.1-0.7,2.3-2.9,2.3C150.6,54.7,149.6,54.2,149,53.4z"/>
			<path class="st3" d="M162.5,54.6v-7.5h-2.7v-0.6h6v0.6h-2.7v7.5H162.5z"/>
			<path class="st3" d="M177.2,54.6l-0.8-2h-4.3l-0.8,2h-0.8l3.3-8.1h0.9l3.3,8.1H177.2z M174.2,47.2l-1.9,4.8h3.8L174.2,47.2z"/>
			<path class="st3" d="M185.2,54.6v-7.5h-2.7v-0.6h6v0.6h-2.7v7.5H185.2z"/>
			<path class="st3" d="M193.9,54.6v-8.1h5.2v0.6h-4.5v3h4.4v0.6h-4.4v3.2h4.5v0.6H193.9z"/>
		</g>
		<g>
			<g>
				<g>
					<path class="st0" d="M87.4,22c0-0.9,0.1-1.6,0.4-2.4c0.3-0.7,0.7-1.3,1.3-1.8c0.6-0.5,1.3-0.9,2.2-1.2c0.9-0.3,1.9-0.4,3-0.4
						c0.5,0,1.1,0,1.7,0.1c0.6,0.1,1.2,0.1,1.8,0.2c0.6,0.1,1.2,0.2,1.7,0.4c0.8,0.2,2,0.7,2,0.7l-1.1,3.1c0,0-0.2-0.1-0.4-0.1
						c-1-0.3-2-0.6-3-0.8c-1-0.2-1.9-0.3-2.7-0.3c-1.1,0-1.8,0.2-2.3,0.7c-0.5,0.4-0.7,1-0.7,1.5c0,0.4,0.1,0.7,0.3,1
						c0.2,0.3,0.5,0.6,0.8,0.9c0.4,0.3,0.9,0.5,1.5,0.8c0.6,0.3,1.3,0.6,2.1,0.9c0.9,0.4,1.7,0.7,2.5,1.1c0.8,0.4,1.5,0.8,2.1,1.3
						c0.6,0.5,1.1,1.1,1.5,1.8c0.4,0.7,0.5,1.5,0.5,2.5c0,1.1-0.2,2-0.6,2.8c-0.4,0.8-0.9,1.4-1.6,1.9c-0.7,0.5-1.5,0.9-2.4,1.1
						c-0.9,0.3-1.9,0.4-3,0.4c-1.3,0-2.6-0.1-4-0.4c-1.4-0.2-2.7-0.7-3.9-1.3l-0.4-0.2l1.4-3c0,0,0.1,0.1,0.5,0.2c1,0.4,2,0.7,3,1
						c1,0.3,2.1,0.4,3,0.4c1.5,0,2.6-0.3,3.3-0.8c0.6-0.5,1-1.2,1-2c0-0.4-0.1-0.8-0.2-1.1c-0.2-0.3-0.4-0.6-0.8-0.9
						c-0.3-0.3-0.8-0.5-1.3-0.8c-0.5-0.3-1.2-0.5-1.9-0.8c-1.1-0.4-2.1-0.9-3-1.3c-0.9-0.4-1.6-0.9-2.2-1.4c-0.6-0.5-1-1.1-1.4-1.7
						C87.6,23.5,87.4,22.8,87.4,22z"/>
					<polygon class="st0" points="174.1,37.9 168.3,27.3 164.5,32 164.5,37.9 160.7,37.9 160.7,16.6 164.5,16.6 164.5,26.5 
						172.7,16.6 177.1,16.6 170.9,24.3 178.5,37.9 					"/>
				</g>
				<polygon class="st0" points="124.2,16.6 124.2,37.9 120.5,37.9 120.5,28.3 111,28.3 111,37.9 107.3,37.9 107.3,16.6 111,16.6 
					111,25.1 120.5,25.1 120.5,16.6 				"/>
				<rect x="150.5" y="16.6" class="st0" width="3.8" height="21.4"/>
				<polygon class="st0" points="199.3,16.6 199.3,37.9 195.5,37.9 195.5,28.3 186.1,28.3 186.1,37.9 182.3,37.9 182.3,16.6 
					186.1,16.6 186.1,25.1 195.5,25.1 195.5,16.6 				"/>
				<polygon class="st0" points="145.1,34.6 145.1,37.9 130.4,37.9 130.4,16.6 144.9,16.6 144.9,19.8 134.1,19.8 134.1,25 143.9,25 
					143.9,28.2 134.1,28.2 134.1,34.6 				"/>
			</g>
		</g>
	</g>
</g>
</svg>
