<?xml version="1.0" encoding="utf-8"?>
<!-- Generator: Adobe Illustrator 19.0.1, SVG Export Plug-In . SVG Version: 6.00 Build 0)  -->
<svg version="1.1" id="Слой_1" xmlns="http://www.w3.org/2000/svg" xmlns:xlink="http://www.w3.org/1999/xlink" x="0px" y="0px"
	 viewBox="-202 378.7 205.5 36.3" style="enable-background:new -202 378.7 205.5 36.3;" xml:space="preserve">
<style type="text/css">
	.st0{fill:#FFFFFF;}
	.st1{opacity:0.35;enable-background:new    ;}
</style>
<g>
	<path class="st0" d="M-175.5,400.8l-10.5-9.4h11.2l-2-2h-14.3l-2.6,2.6l1.3,1.2l10.3,9.3h-11l2,2h14.4l2.5-2.5L-175.5,400.8z
		 M-179.3,402.5l-11.8-10.7l-0.5-0.4h2.6l12,10.8l0.3,0.3H-179.3z"/>
	<polygon class="st0" points="-178.5,387.7 -189.4,387.7 -187.4,385.7 -180.5,385.7 	"/>
	<path class="st0" d="M-183.9,379.3l-17.7,17.6l17.7,17.6l17.7-17.6L-183.9,379.3z M-178.5,406.2l-5.4,5.5l-3.5-3.5l-2-2l-1.8-1.8
		l-2-2l-5.5-5.5l4.9-4.9l9.8-9.8l3.5,3.5l2,2l3.7,3.7l5.6,5.6l-5,5l-2.5,2.5L-178.5,406.2z"/>
	<polygon class="st0" points="-178.5,406.2 -180.5,408.2 -187.4,408.2 -189.4,406.2 	"/>
	<path class="st1" d="M-187.4,385.7l-2,2h2.4l2-2H-187.4z M-186.9,406.2h-2.4l2,2h2.3L-186.9,406.2z M-190.7,402.5h-2.4l2,2h2.4
		L-190.7,402.5z M-180.9,406.2l-2,2h2.4l2-2H-180.9z M-174.2,402l-1.3-1.2l-1.4,1.4l0.3,0.3h-0.6l-2,2h2.4l7.5-7.5L-174.2,402z
		 M-176.7,389.4h-2.4l2,2h2.4L-176.7,389.4z M-180.5,385.7h-2.4l2,2h2.4L-180.5,385.7z M-188.7,389.4h-2.4l-2.6,2.6l1.3,1.2l1.4-1.4
		l-0.5-0.4h0.9L-188.7,389.4z"/>
	<g>
		<g>
			<g>
				<path class="st0" d="M-158.5,394.5c0-0.4,0.1-0.8,0.2-1.1c0.1-0.3,0.3-0.6,0.6-0.9c0.3-0.2,0.6-0.4,1-0.6
					c0.4-0.1,0.9-0.2,1.5-0.2c0.3,0,0.5,0,0.8,0c0.3,0,0.6,0.1,0.8,0.1c0.3,0,0.6,0.1,0.8,0.2c0.4,0.1,0.9,0.4,0.9,0.4l-0.5,1.5
					c0,0-0.1,0-0.2-0.1c-0.5-0.2-1-0.3-1.4-0.4c-0.5-0.1-0.9-0.1-1.3-0.1c-0.5,0-0.9,0.1-1.1,0.3c-0.2,0.2-0.3,0.5-0.3,0.7
					c0,0.2,0,0.3,0.1,0.5c0.1,0.1,0.2,0.3,0.4,0.4s0.4,0.3,0.7,0.4s0.6,0.3,1,0.4c0.4,0.2,0.8,0.4,1.2,0.5c0.4,0.2,0.7,0.4,1,0.6
					c0.3,0.2,0.5,0.5,0.7,0.9c0.2,0.3,0.3,0.7,0.3,1.2s-0.1,0.9-0.3,1.3c-0.2,0.4-0.4,0.7-0.8,0.9c-0.3,0.2-0.7,0.4-1.2,0.5
					c-0.4,0.1-0.9,0.2-1.4,0.2c-0.6,0-1.3-0.1-1.9-0.2c-0.7-0.1-1.3-0.3-1.9-0.6h-0.2l0.6-1.5c0,0,0.1,0,0.2,0.1
					c0.5,0.2,0.9,0.4,1.5,0.5c0.5,0.1,1,0.2,1.5,0.2c0.7,0,1.3-0.1,1.6-0.4c0.3-0.3,0.5-0.6,0.5-0.9c0-0.2,0-0.4-0.1-0.5
					c-0.1-0.2-0.2-0.3-0.4-0.4c-0.2-0.1-0.4-0.3-0.6-0.4c-0.3-0.1-0.6-0.3-0.9-0.4c-0.5-0.2-1-0.4-1.4-0.6c-0.4-0.2-0.8-0.4-1-0.7
					c-0.3-0.2-0.5-0.5-0.6-0.8C-158.4,395.2-158.5,394.8-158.5,394.5z"/>
				<polygon class="st0" points="-117.2,402 -119.9,397 -121.8,399.2 -121.8,402 -123.6,402 -123.6,391.8 -121.8,391.8 
					-121.8,396.6 -117.8,391.8 -115.7,391.8 -118.7,395.5 -115.1,402 				"/>
			</g>
			<polygon class="st0" points="-141,391.8 -141,402 -142.8,402 -142.8,397.5 -147.3,397.5 -147.3,402 -149.1,402 -149.1,391.8 
				-147.3,391.8 -147.3,395.9 -142.8,395.9 -142.8,391.8 			"/>
			<rect x="-128.4" y="391.8" class="st0" width="1.8" height="10.2"/>
			<polygon class="st0" points="-105.2,391.8 -105.2,402 -107,402 -107,397.5 -111.5,397.5 -111.5,402 -113.3,402 -113.3,391.8 
				-111.5,391.8 -111.5,395.9 -107,395.9 -107,391.8 			"/>
			<polygon class="st0" points="-131,400.4 -131,402 -138,402 -138,391.8 -131.1,391.8 -131.1,393.4 -136.2,393.4 -136.2,395.8 
				-131.6,395.8 -131.6,397.4 -136.2,397.4 -136.2,400.4 			"/>
		</g>
	</g>
	<path class="st0" d="M-89.7,402l-2.9-4.2h-2.2v4.2h-0.9v-10.1h3.8c1.8,0,3.1,1.1,3.1,3c0,1.8-1.3,2.9-2.8,2.9l2.9,4.3h-1V402z
		 M-89.7,394.8c0-1.3-0.9-2.2-2.3-2.2h-2.9v4.4h2.9C-90.6,397-89.7,396.1-89.7,394.8z"/>
	<path class="st0" d="M-85.9,402v-10.1h6.5v0.8H-85v3.8h5.5v0.8H-85v4h5.6v0.8h-6.5V402z"/>
	<path class="st0" d="M-69.1,402l-1-2.5h-5.4l-1,2.5h-1l4.2-10.2h1.1L-68,402H-69.1z M-72.8,392.8l-2.4,5.9h4.8L-72.8,392.8z"/>
	<path class="st0" d="M-65.9,402v-10.1h0.9v9.4h4.9v0.8h-5.8V402z"/>
	<path class="st0" d="M-52.7,402v-10.1h6.5v0.8h-5.6v3.8h5.5v0.8h-5.5v4h5.6v0.8h-6.5V402z"/>
	<path class="st0" d="M-43.9,400.6l0.6-0.7c0.7,0.8,1.7,1.5,3.2,1.5c2.1,0,2.7-1.2,2.7-2c0-3-6.1-1.4-6.1-5c0-1.7,1.5-2.7,3.3-2.7
		c1.5,0,2.7,0.5,3.4,1.4l-0.6,0.6c-0.7-0.9-1.8-1.3-2.9-1.3c-1.4,0-2.4,0.8-2.4,1.9c0,2.6,6.1,1.2,6.1,5c0,1.3-0.9,2.9-3.6,2.9
		C-41.8,402.2-43.1,401.5-43.9,400.6z"/>
	<path class="st0" d="M-31.1,402v-9.4h-3.3v-0.8h7.5v0.8h-3.3v9.4H-31.1z"/>
	<path class="st0" d="M-17,402l-1-2.5h-5.4l-1,2.5h-1l4.2-10.2h1.1l4.2,10.2H-17z M-20.7,392.8l-2.4,5.9h4.8L-20.7,392.8z"/>
	<path class="st0" d="M-11.1,402v-9.4h-3.3v-0.8h7.5v0.8h-3.3v9.4H-11.1z"/>
	<path class="st0" d="M-4.3,402v-10.1h6.5v0.8h-5.6v3.8h5.5v0.8h-5.5v4h5.6v0.8h-6.5V402z"/>
</g>
</svg>
